<svg width="15" height="19" viewBox="0 0 15 19" fill="none" xmlns="http://www.w3.org/2000/svg">
<path d="M1.16602 4.30005V13.7852C1.16602 15.1463 1.16602 15.8267 1.37013 16.2431C1.74846 17.015 2.57759 17.4586 3.42969 17.3452C3.88942 17.2841 4.45565 16.9066 5.58811 16.1516L5.59083 16.1498C6.0397 15.8506 6.26416 15.7009 6.49897 15.6179C6.93022 15.4655 7.40078 15.4655 7.83203 15.6179C8.06731 15.7011 8.29265 15.8513 8.74333 16.1518C9.8758 16.9067 10.4427 17.2839 10.9024 17.3451C11.7545 17.4585 12.5836 17.015 12.9619 16.2431C13.166 15.8267 13.166 15.146 13.166 13.7852V4.29676C13.166 3.17885 13.166 2.61906 12.9482 2.19165C12.7565 1.81533 12.4497 1.50959 12.0734 1.31784C11.6456 1.09985 11.0863 1.09985 9.96621 1.09985H4.36621C3.24611 1.09985 2.68564 1.09985 2.25781 1.31784C1.88149 1.50959 1.57575 1.81533 1.384 2.19165C1.16602 2.61947 1.16602 3.17994 1.16602 4.30005Z" stroke="#FF5151" stroke-width="2" stroke-linecap="round" stroke-linejoin="round"/>
</svg>
