<svg width="10" height="10" viewBox="0 0 10 10" fill="none" xmlns="http://www.w3.org/2000/svg">
<path d="M5.36688 8.682C6.17687 8.682 6.96867 8.44181 7.64216 7.9918C8.31564 7.54179 8.84056 6.90218 9.15053 6.15385C9.4605 5.40551 9.5416 4.58206 9.38358 3.78763C9.22556 2.99321 8.83551 2.26348 8.26276 1.69073C7.69001 1.11797 6.96028 0.727926 6.16585 0.569905C5.37142 0.411883 4.54797 0.492985 3.79964 0.802956C3.0513 1.11293 2.41169 1.63784 1.96168 2.31133C1.51168 2.98481 1.27148 3.77661 1.27148 4.58661C1.27148 5.26371 1.4353 5.90214 1.72653 6.46457L1.27148 8.682L3.48891 8.22696C4.05135 8.51818 4.69023 8.682 5.36688 8.682Z" stroke="#1DA1F2" stroke-width="0.963622" stroke-linecap="round" stroke-linejoin="round"/>
</svg>
