<svg width="17" height="17" viewBox="0 0 17 17" fill="none" xmlns="http://www.w3.org/2000/svg">
<path d="M6.23497 10.2205C6.23497 11.1322 6.974 11.8712 7.88563 11.8712H9.41838C10.3951 11.8712 11.1869 11.0794 11.1869 10.1026C11.1869 9.12587 10.3951 8.33406 9.41838 8.33406H8.00353C7.02678 8.33406 6.23497 7.54225 6.23497 6.5655C6.23497 5.58876 7.02678 4.79694 8.00353 4.79694H9.53628C10.4479 4.79694 11.1869 5.53597 11.1869 6.4476M8.71096 3.73581V4.79694M8.71096 11.8712V12.9323M15.7852 8.33406C15.7852 12.2411 12.6179 15.4083 8.71096 15.4083C4.80396 15.4083 1.63672 12.2411 1.63672 8.33406C1.63672 4.42707 4.80396 1.25983 8.71096 1.25983C12.6179 1.25983 15.7852 4.42707 15.7852 8.33406Z" stroke="#7B8EC8" stroke-width="1.5" stroke-linecap="round" stroke-linejoin="round"/>
</svg>
