<svg width="13" height="13" viewBox="0 0 13 13" fill="none" xmlns="http://www.w3.org/2000/svg">
<path d="M8.69726 5.06038L8.06384 4.95502C8.04854 5.04701 8.05346 5.14123 8.07825 5.23113C8.10303 5.32103 8.14709 5.40445 8.20737 5.47561C8.26764 5.54676 8.34268 5.60394 8.42728 5.64317C8.51188 5.68241 8.60401 5.70275 8.69726 5.70279V5.06038ZM1.6307 5.06038V4.41797C1.46032 4.41797 1.29692 4.48565 1.17644 4.60612C1.05596 4.7266 0.988281 4.89 0.988281 5.06038H1.6307ZM2.91553 12.1269H10.2134V10.8421H2.91553V12.1269ZM10.9843 4.41797H8.69726V5.70279H10.9843V4.41797ZM9.33132 5.16574L9.84847 2.05966L8.58162 1.84831L8.06384 4.95502L9.33132 5.16574ZM8.58162 0.563477H8.44415V1.84831H8.58162V0.563477ZM6.30555 1.70762L4.68988 4.13209L5.75885 4.84517L7.37517 2.4207L6.30555 1.70762ZM4.15539 4.41797H1.6307V5.70279H4.15539V4.41797ZM0.988281 5.06038V10.1997H2.27311V5.06038H0.988281ZM12.1033 10.5774L12.8742 6.72295L11.6151 6.47112L10.8442 10.3256L12.1033 10.5774ZM4.68988 4.13209C4.63119 4.22005 4.5517 4.29216 4.45847 4.34203C4.36523 4.3919 4.26112 4.41798 4.15539 4.41797V5.70279C4.47265 5.70277 4.78501 5.62442 5.06473 5.4747C5.34445 5.32498 5.58288 5.10916 5.75885 4.84517L4.68988 4.13209ZM9.84847 2.05966C9.87916 1.87563 9.8694 1.68713 9.81988 1.50725C9.77035 1.32738 9.68225 1.16044 9.56169 1.01806C9.44113 0.875675 9.29101 0.761254 9.12176 0.682751C8.95251 0.604248 8.76819 0.563547 8.58162 0.563477V1.84831L9.84847 2.05966ZM10.9843 5.70279C11.0793 5.70276 11.1732 5.72382 11.2591 5.76446C11.3451 5.80509 11.4209 5.8643 11.4812 5.9378C11.5415 6.0113 11.5847 6.09726 11.6078 6.18949C11.6308 6.28171 11.6337 6.37791 11.6151 6.47112L12.8742 6.72295C12.9301 6.4434 12.9233 6.15494 12.8542 5.87835C12.7852 5.60177 12.6556 5.34395 12.4749 5.12347C12.2942 4.903 12.0668 4.72536 11.8091 4.60336C11.5515 4.48136 11.2693 4.41804 10.9843 4.41797V5.70279ZM10.2134 12.1269C10.6589 12.127 11.0908 11.9726 11.4354 11.6901C11.78 11.4076 12.016 11.0144 12.1033 10.5774L10.8442 10.3256C10.8151 10.4714 10.7363 10.6026 10.6212 10.6968C10.5062 10.791 10.362 10.8423 10.2134 10.8421V12.1269ZM8.44415 0.563477C8.02103 0.563378 7.60444 0.66776 7.23137 0.867355C6.85829 1.06695 6.54027 1.35558 6.30555 1.70762L7.37517 2.4207C7.49246 2.24466 7.6514 2.10032 7.83789 2.00046C8.02437 1.90061 8.23262 1.84834 8.44415 1.84831V0.563477ZM2.91553 10.8421C2.74515 10.8421 2.58175 10.7744 2.46127 10.654C2.34079 10.5335 2.27311 10.3701 2.27311 10.1997H0.988281C0.988281 10.7108 1.19133 11.201 1.55276 11.5625C1.91419 11.9239 2.40439 12.1269 2.91553 12.1269V10.8421Z" fill="#1DA1F2"/>
<path d="M4.20312 5.05981V11.484" stroke="#1DA1F2"/>
</svg>
