<svg width="15" height="19" viewBox="0 0 15 19" fill="none" xmlns="http://www.w3.org/2000/svg">
<path d="M1.16602 4.71484V14.2C1.16602 15.5611 1.16602 16.2415 1.37013 16.6579C1.74846 17.4298 2.57759 17.8734 3.42969 17.76C3.88942 17.6989 4.45565 17.3214 5.58811 16.5664L5.59083 16.5646C6.0397 16.2653 6.26416 16.1157 6.49897 16.0327C6.93022 15.8803 7.40078 15.8803 7.83203 16.0327C8.06731 16.1159 8.29265 16.2661 8.74333 16.5666C9.8758 17.3215 10.4427 17.6987 10.9024 17.7599C11.7545 17.8733 12.5836 17.4298 12.9619 16.6579C13.166 16.2415 13.166 15.5608 13.166 14.2V4.71156C13.166 3.59364 13.166 3.03385 12.9482 2.60645C12.7565 2.23012 12.4497 1.92438 12.0734 1.73264C11.6456 1.51465 11.0863 1.51465 9.96621 1.51465H4.36621C3.24611 1.51465 2.68564 1.51465 2.25781 1.73264C1.88149 1.92438 1.57575 2.23012 1.384 2.60645C1.16602 3.03427 1.16602 3.59474 1.16602 4.71484Z" stroke="#FF3F26" stroke-width="2" stroke-linecap="round" stroke-linejoin="round"/>
</svg>
