<svg width="15" height="11" viewBox="0 0 15 11" fill="none" xmlns="http://www.w3.org/2000/svg">
<path d="M14.6889 5.182C14.1222 3.71617 13.1384 2.44851 11.8591 1.5357C10.5798 0.622894 9.06109 0.104955 7.49063 0.0458984C5.92018 0.104955 4.40145 0.622894 3.12215 1.5357C1.84285 2.44851 0.859063 3.71617 0.292376 5.182C0.254104 5.28786 0.254104 5.40378 0.292376 5.50964C0.859063 6.97547 1.84285 8.24313 3.12215 9.15594C4.40145 10.0687 5.92018 10.5867 7.49063 10.6457C9.06109 10.5867 10.5798 10.0687 11.8591 9.15594C13.1384 8.24313 14.1222 6.97547 14.6889 5.50964C14.7272 5.40378 14.7272 5.28786 14.6889 5.182ZM7.49063 9.68212C4.93703 9.68212 2.23889 7.7886 1.26082 5.34582C2.23889 2.90304 4.93703 1.00952 7.49063 1.00952C10.0442 1.00952 12.7424 2.90304 13.7205 5.34582C12.7424 7.7886 10.0442 9.68212 7.49063 9.68212Z" fill="#1DA1F2"/>
<path d="M7.49048 2.45459C6.91872 2.45459 6.3598 2.62414 5.8844 2.94179C5.409 3.25944 5.03847 3.71093 4.81966 4.23917C4.60086 4.76741 4.54361 5.34866 4.65516 5.90944C4.7667 6.47021 5.04203 6.98531 5.44633 7.38961C5.85062 7.7939 6.36572 8.06923 6.9265 8.18078C7.48727 8.29232 8.06853 8.23507 8.59676 8.01627C9.125 7.79747 9.57649 7.42694 9.89414 6.95154C10.2118 6.47614 10.3813 5.91722 10.3813 5.34546C10.3813 4.57875 10.0768 3.84345 9.53463 3.30131C8.99249 2.75916 8.25718 2.45459 7.49048 2.45459ZM7.49048 7.2727C7.1093 7.2727 6.73669 7.15967 6.41976 6.9479C6.10282 6.73613 5.8558 6.43514 5.70994 6.08298C5.56407 5.73082 5.5259 5.34332 5.60026 4.96947C5.67463 4.59562 5.85818 4.25222 6.12771 3.98269C6.39724 3.71316 6.74064 3.52961 7.11449 3.45524C7.48834 3.38088 7.87584 3.41905 8.228 3.56491C8.58016 3.71078 8.88115 3.9578 9.09292 4.27474C9.30469 4.59167 9.41772 4.96428 9.41772 5.34546C9.41772 5.85659 9.21467 6.34679 8.85324 6.70822C8.49182 7.06965 8.00161 7.2727 7.49048 7.2727Z" fill="#1DA1F2"/>
</svg>

